<svg aria-hidden="true" style="position: absolute; width: 0; height: 0; overflow: hidden;" version="1.1" xmlns="http://www.w3.org/2000/svg" xmlns:xlink="http://www.w3.org/1999/xlink">
<defs>
<symbol id="icon-Vector-4" viewBox="0 0 40 32">
<path fill="#f4f4fd" style="fill: var(--color1, #f4f4fd)" d="M33.84 1.96c0.639-0.554 1.478-0.892 2.396-0.892 0.015 0 0.031 0 0.046 0l-0.002-0c0.001 0 0.002 0 0.003 0 0.932 0 1.783 0.349 2.429 0.923l-0.004-0.003c0.618 0.55 1.016 1.338 1.048 2.218l0 0.006c0 0.020 0.001 0.043 0.001 0.067 0 0.861-0.352 1.64-0.92 2.201l-0 0-18.62 21.496c-0.317 0.314-0.694 0.568-1.113 0.743l-0.023 0.009c-0.419 0.176-0.907 0.279-1.418 0.279-0.955 0-1.827-0.358-2.489-0.946l0.004 0.003-12.348-11.4c-0.335-0.287-0.608-0.635-0.804-1.029l-0.009-0.019c-0.194-0.388-0.308-0.845-0.308-1.329 0-0.903 0.396-1.714 1.024-2.268l0.003-0.003c0.328-0.301 0.716-0.543 1.144-0.704l0.024-0.008c0.39-0.15 0.841-0.236 1.312-0.236 0.514 0 1.003 0.103 1.449 0.289l-0.025-0.009c0.441 0.183 0.819 0.436 1.136 0.748l-0-0 9.772 9.016 16.208-19.060c0.029-0.033 0.059-0.063 0.091-0.091l0.001-0.001h-0.008z"></path>
</symbol>
</defs>
</svg>
